<svg width="64" height="65" viewBox="0 0 64 65" fill="none" xmlns="http://www.w3.org/2000/svg">
<path fill-rule="evenodd" clip-rule="evenodd" d="M5.33301 32.1924C5.33301 17.4648 17.2721 5.52576 31.9997 5.52576C39.0721 5.52576 45.8549 8.33528 50.8559 13.3362C55.8568 18.3372 58.6663 25.12 58.6663 32.1924C58.6663 46.92 46.7273 58.8591 31.9997 58.8591C17.2721 58.8591 5.33301 46.92 5.33301 32.1924ZM27.1198 43.6058L42.6664 33.8991C43.2482 33.5265 43.6001 32.8833 43.6001 32.1924C43.6001 31.5016 43.2482 30.8583 42.6664 30.4858L27.0664 20.7791C26.452 20.3917 25.6758 20.3679 25.0388 20.7168C24.4018 21.0658 24.004 21.7327 23.9998 22.4591V41.9258C23.9912 42.6698 24.3963 43.3571 25.0514 43.7098C25.7065 44.0626 26.5033 44.0225 27.1198 43.6058Z" fill="white"/>
</svg>
