<svg width="202" height="162" viewBox="0 0 202 162" fill="none" xmlns="http://www.w3.org/2000/svg">
<path fill-rule="evenodd" clip-rule="evenodd" d="M20.9998 1.19214H181C192.046 1.19214 201 10.1461 201 21.1921V141.192C201 152.238 192.046 161.191 181 161.191H20.9998C9.95376 161.191 0.999756 152.238 0.999756 141.192V21.1921C0.999756 10.1461 9.95376 1.19214 20.9998 1.19214ZM92.6998 113.392L131.6 87.3918C133.696 86.0258 134.96 83.6938 134.96 81.1918C134.96 78.6898 133.696 76.3578 131.6 74.9918L92.6998 48.9919C90.4028 47.4399 87.4378 47.2809 84.9878 48.5789C82.5388 49.8769 81.0048 52.4199 80.9998 55.1919V107.192C81.0048 109.964 82.5388 112.507 84.9878 113.805C87.4378 115.103 90.4028 114.944 92.6998 113.392Z" fill="black" fill-opacity="0.15"/>
</svg>
